<?xml version="1.0" encoding="UTF-8" standalone="no"?>
<!DOCTYPE svg PUBLIC "-//W3C//DTD SVG 1.1//EN"
 "http://www.w3.org/Graphics/SVG/1.1/DTD/svg11.dtd">
<!-- Generated by graphviz version 2.50.0 (20211204.2007)
 -->
<!-- Title: workflow Pages: 1 -->
<svg width="791pt" height="238pt"
 viewBox="0.00 0.00 791.13 237.86" xmlns="http://www.w3.org/2000/svg" xmlns:xlink="http://www.w3.org/1999/xlink">
<g id="graph0" class="graph" transform="scale(1 1) rotate(0) translate(4 233.86)">
<title>workflow</title>
<polygon fill="white" stroke="transparent" points="-4,4 -4,-233.86 787.13,-233.86 787.13,4 -4,4"/>
<!-- place_0e7766b460fd2a39a2fd81d4a3a636b033b52be4 -->
<g id="node1" class="node">
<title>place_0e7766b460fd2a39a2fd81d4a3a636b033b52be4</title>
<ellipse fill="lightblue" stroke="#333333" cx="36" cy="-120.25" rx="36" ry="36"/>
<text text-anchor="middle" x="36" y="-118.05" font-family="Arial" font-size="9.00">draft</text>
</g>
<!-- transition_b6589fc6ab0dc82cf12099d1c2d40ab994e8410c -->
<g id="node7" class="node">
<title>transition_b6589fc6ab0dc82cf12099d1c2d40ab994e8410c</title>
<polygon fill="none" stroke="#333333" points="188,-160.25 108,-160.25 108,-80.25 188,-80.25 188,-160.25"/>
<text text-anchor="middle" x="148" y="-118.05" font-family="Arial" font-size="9.00">review_request</text>
</g>
<!-- place_0e7766b460fd2a39a2fd81d4a3a636b033b52be4&#45;&gt;transition_b6589fc6ab0dc82cf12099d1c2d40ab994e8410c -->
<g id="edge1" class="edge">
<title>place_0e7766b460fd2a39a2fd81d4a3a636b033b52be4&#45;&gt;transition_b6589fc6ab0dc82cf12099d1c2d40ab994e8410c</title>
<path fill="none" stroke="#333333" d="M72.11,-120.25C81.74,-120.25 92.32,-120.25 102.42,-120.25"/>
<polygon fill="#333333" stroke="#333333" points="102.64,-122 107.64,-120.25 102.64,-118.5 102.64,-122"/>
</g>
<!-- place_a1af7f76858248d17249d304634461f488524bd7 -->
<g id="node2" class="node">
<title>place_a1af7f76858248d17249d304634461f488524bd7</title>
<ellipse fill="none" stroke="#333333" cx="265.31" cy="-176.25" rx="41.12" ry="41.12"/>
<text text-anchor="middle" x="265.31" y="-174.05" font-family="Arial" font-size="9.00">wait_for_review</text>
</g>
<!-- transition_356a192b7913b04c54574d18c28d46e6395428ab -->
<g id="node8" class="node">
<title>transition_356a192b7913b04c54574d18c28d46e6395428ab</title>
<polygon fill="none" stroke="#333333" points="417.62,-213.25 345.62,-213.25 345.62,-141.25 417.62,-141.25 417.62,-213.25"/>
<text text-anchor="middle" x="381.62" y="-175.05" font-family="Arial" font-size="9.00">editor_review</text>
</g>
<!-- place_a1af7f76858248d17249d304634461f488524bd7&#45;&gt;transition_356a192b7913b04c54574d18c28d46e6395428ab -->
<g id="edge4" class="edge">
<title>place_a1af7f76858248d17249d304634461f488524bd7&#45;&gt;transition_356a192b7913b04c54574d18c28d46e6395428ab</title>
<path fill="none" stroke="#333333" d="M306.94,-176.61C317.74,-176.7 329.42,-176.81 340.21,-176.9"/>
<polygon fill="#333333" stroke="#333333" points="340.42,-178.65 345.44,-176.95 340.45,-175.15 340.42,-178.65"/>
</g>
<!-- place_84f85aec968ff074089d70b613772b1dfc62e941 -->
<g id="node3" class="node">
<title>place_84f85aec968ff074089d70b613772b1dfc62e941</title>
<ellipse fill="none" stroke="#333333" cx="265.31" cy="-70.25" rx="40.06" ry="40.06"/>
<text text-anchor="middle" x="265.31" y="-68.05" font-family="Arial" font-size="9.00">wait_for_check</text>
</g>
<!-- transition_da4b9237bacccdf19c0760cab7aec4a8359010b0 -->
<g id="node9" class="node">
<title>transition_da4b9237bacccdf19c0760cab7aec4a8359010b0</title>
<polygon fill="none" stroke="#333333" points="420.62,-97.25 342.62,-97.25 342.62,-19.25 420.62,-19.25 420.62,-97.25"/>
<text text-anchor="middle" x="381.62" y="-56.05" font-family="Arial" font-size="9.00">checker_check</text>
</g>
<!-- place_84f85aec968ff074089d70b613772b1dfc62e941&#45;&gt;transition_da4b9237bacccdf19c0760cab7aec4a8359010b0 -->
<g id="edge6" class="edge">
<title>place_84f85aec968ff074089d70b613772b1dfc62e941&#45;&gt;transition_da4b9237bacccdf19c0760cab7aec4a8359010b0</title>
<path fill="none" stroke="#333333" d="M305.65,-66.12C315.86,-65.05 326.92,-63.89 337.32,-62.8"/>
<polygon fill="#333333" stroke="#333333" points="337.58,-64.53 342.37,-62.27 337.22,-61.05 337.58,-64.53"/>
</g>
<!-- place_9698d81d772731dc39512dec3c21389577008015 -->
<g id="node4" class="node">
<title>place_9698d81d772731dc39512dec3c21389577008015</title>
<ellipse fill="none" stroke="#333333" cx="511.88" cy="-179.25" rx="50.71" ry="50.71"/>
<text text-anchor="middle" x="511.88" y="-177.05" font-family="Arial" font-size="9.00">approved_by_editor</text>
</g>
<!-- transition_77de68daecd823babbb58edb1c8e14d7106e83bb -->
<g id="node10" class="node">
<title>transition_77de68daecd823babbb58edb1c8e14d7106e83bb</title>
<polygon fill="none" stroke="#333333" points="675.13,-153.25 603.13,-153.25 603.13,-81.25 675.13,-81.25 675.13,-153.25"/>
<text text-anchor="middle" x="639.13" y="-115.05" font-family="Arial" font-size="9.00">published</text>
</g>
<!-- place_9698d81d772731dc39512dec3c21389577008015&#45;&gt;transition_77de68daecd823babbb58edb1c8e14d7106e83bb -->
<g id="edge8" class="edge">
<title>place_9698d81d772731dc39512dec3c21389577008015&#45;&gt;transition_77de68daecd823babbb58edb1c8e14d7106e83bb</title>
<path fill="none" stroke="#333333" d="M557.74,-157.05C571,-150.49 585.41,-143.35 598.32,-136.96"/>
<polygon fill="#333333" stroke="#333333" points="599.3,-138.43 603.01,-134.64 597.75,-135.29 599.3,-138.43"/>
</g>
<!-- place_06a78ad86bd460cba058c05702001d138b4f7bd6 -->
<g id="node5" class="node">
<title>place_06a78ad86bd460cba058c05702001d138b4f7bd6</title>
<ellipse fill="none" stroke="#333333" cx="511.88" cy="-55.25" rx="55.01" ry="55.01"/>
<text text-anchor="middle" x="511.88" y="-53.05" font-family="Arial" font-size="9.00">approved_by_checker</text>
</g>
<!-- place_06a78ad86bd460cba058c05702001d138b4f7bd6&#45;&gt;transition_77de68daecd823babbb58edb1c8e14d7106e83bb -->
<g id="edge9" class="edge">
<title>place_06a78ad86bd460cba058c05702001d138b4f7bd6&#45;&gt;transition_77de68daecd823babbb58edb1c8e14d7106e83bb</title>
<path fill="none" stroke="#333333" d="M561.66,-79.4C573.79,-85.41 586.65,-91.77 598.29,-97.53"/>
<polygon fill="#333333" stroke="#333333" points="597.6,-99.14 602.86,-99.79 599.15,-96.01 597.6,-99.14"/>
</g>
<!-- place_c2807535f28e44fe6c7375dcf90518115529a8fa -->
<g id="node6" class="node">
<title>place_c2807535f28e44fe6c7375dcf90518115529a8fa</title>
<ellipse fill="none" stroke="#333333" cx="747.13" cy="-117.25" rx="36" ry="36"/>
<text text-anchor="middle" x="747.13" y="-115.05" font-family="Arial" font-size="9.00">published</text>
</g>
<!-- transition_b6589fc6ab0dc82cf12099d1c2d40ab994e8410c&#45;&gt;place_a1af7f76858248d17249d304634461f488524bd7 -->
<g id="edge2" class="edge">
<title>transition_b6589fc6ab0dc82cf12099d1c2d40ab994e8410c&#45;&gt;place_a1af7f76858248d17249d304634461f488524bd7</title>
<path fill="none" stroke="#333333" d="M188.04,-139.21C199.24,-144.66 211.5,-150.61 222.85,-156.12"/>
<polygon fill="#333333" stroke="#333333" points="222.39,-157.84 227.65,-158.45 223.92,-154.69 222.39,-157.84"/>
</g>
<!-- transition_b6589fc6ab0dc82cf12099d1c2d40ab994e8410c&#45;&gt;place_84f85aec968ff074089d70b613772b1dfc62e941 -->
<g id="edge3" class="edge">
<title>transition_b6589fc6ab0dc82cf12099d1c2d40ab994e8410c&#45;&gt;place_84f85aec968ff074089d70b613772b1dfc62e941</title>
<path fill="none" stroke="#333333" d="M188.04,-103.33C199.36,-98.42 211.75,-93.05 223.19,-88.08"/>
<polygon fill="#333333" stroke="#333333" points="224.14,-89.58 228.03,-85.98 222.75,-86.37 224.14,-89.58"/>
</g>
<!-- transition_356a192b7913b04c54574d18c28d46e6395428ab&#45;&gt;place_9698d81d772731dc39512dec3c21389577008015 -->
<g id="edge5" class="edge">
<title>transition_356a192b7913b04c54574d18c28d46e6395428ab&#45;&gt;place_9698d81d772731dc39512dec3c21389577008015</title>
<path fill="none" stroke="#333333" d="M417.67,-177.8C429.46,-177.98 442.9,-178.19 455.85,-178.4"/>
<polygon fill="#333333" stroke="#333333" points="455.94,-180.15 460.97,-178.48 456,-176.65 455.94,-180.15"/>
</g>
<!-- transition_da4b9237bacccdf19c0760cab7aec4a8359010b0&#45;&gt;place_06a78ad86bd460cba058c05702001d138b4f7bd6 -->
<g id="edge7" class="edge">
<title>transition_da4b9237bacccdf19c0760cab7aec4a8359010b0&#45;&gt;place_06a78ad86bd460cba058c05702001d138b4f7bd6</title>
<path fill="none" stroke="#333333" d="M420.76,-57.36C430.4,-57.14 440.99,-56.89 451.42,-56.65"/>
<polygon fill="#333333" stroke="#333333" points="451.56,-58.39 456.52,-56.53 451.48,-54.89 451.56,-58.39"/>
</g>
<!-- transition_77de68daecd823babbb58edb1c8e14d7106e83bb&#45;&gt;place_c2807535f28e44fe6c7375dcf90518115529a8fa -->
<g id="edge10" class="edge">
<title>transition_77de68daecd823babbb58edb1c8e14d7106e83bb&#45;&gt;place_c2807535f28e44fe6c7375dcf90518115529a8fa</title>
<path fill="none" stroke="#333333" d="M675.13,-117.25C684.89,-117.25 695.57,-117.25 705.62,-117.25"/>
<polygon fill="#333333" stroke="#333333" points="705.81,-119 710.81,-117.25 705.81,-115.5 705.81,-119"/>
</g>
</g>
</svg>
